# Blender v2.83.3 OBJ File: ''
# www.blender.org
mtllib Hex Book.mtl
o Quest_Tablet_Cinematic
v -0.153611 0.311161 0.000745
v 0.005725 0.301801 0.047481
v -0.148907 0.301801 0.037160
v 0.005907 0.311161 0.000951
v -0.148907 0.301801 -0.037160
v 0.005725 0.301801 -0.047481
v 0.153610 0.311161 0.000777
v 0.148907 0.301801 0.038742
v 0.148907 0.301801 -0.038742
v -0.210261 0.235029 0.037160
v -0.148907 0.301801 0.037160
v 0.005725 0.301801 0.047481
v 0.005725 0.235029 0.047481
v -0.210261 -0.135623 0.024560
v -0.170613 -0.225761 0.024560
v -0.104833 -0.277254 0.026364
v 0.003921 -0.298346 0.031381
v 0.210261 0.235029 0.038742
v 0.148907 0.301801 0.038742
v 0.210261 -0.135623 0.025606
v 0.170578 -0.225820 0.025606
v 0.105074 -0.277893 0.027209
v -0.170609 -0.225766 -0.024560
v -0.104829 -0.277256 -0.026364
v 0.003921 -0.298346 -0.031381
v 0.005725 0.235029 -0.017833
v -0.210261 -0.135623 -0.024560
v -0.210261 0.235029 -0.037160
v 0.170573 -0.225826 -0.025606
v 0.105068 -0.277895 -0.027209
v 0.210261 -0.135623 -0.025606
v 0.210261 0.235029 -0.038742
v 0.005725 0.301801 -0.047481
v -0.148907 0.301801 -0.037160
v 0.148907 0.301801 -0.038742
v -0.210261 0.235029 0.037160
v -0.153611 0.311161 0.000745
v -0.148907 0.301801 0.037160
v -0.216904 0.242280 0.000745
v -0.148907 0.301801 -0.037160
v -0.210261 0.235029 -0.037160
v -0.210261 -0.135623 0.024560
v -0.216904 -0.142722 0.000494
v -0.210261 -0.135623 -0.024560
v -0.175024 -0.237123 0.000494
v -0.170613 -0.225761 0.024560
v -0.104833 -0.277254 0.026364
v -0.170609 -0.225766 -0.024560
v -0.109733 -0.288304 0.000529
v -0.104829 -0.277256 -0.026364
v 0.153610 0.311161 0.000777
v 0.148907 0.301801 -0.038742
v 0.210261 0.235029 -0.038742
v 0.216904 0.242280 0.000777
v 0.148907 0.301801 0.038742
v 0.210261 0.235029 0.038742
v 0.210261 -0.135623 0.025606
v 0.216904 -0.142722 0.000515
v 0.210261 -0.135623 -0.025606
v 0.170578 -0.225820 0.025606
v 0.174978 -0.237198 0.000515
v 0.170573 -0.225826 -0.025606
v 0.105068 -0.277895 -0.027209
v 0.109958 -0.288942 0.000546
v 0.105074 -0.277893 0.027209
v -0.109733 -0.288304 0.000529
v -0.104833 -0.277254 0.026364
v 0.003921 -0.298346 0.031381
v 0.004045 -0.311161 0.000630
v 0.105074 -0.277893 0.027209
v 0.109958 -0.288942 0.000546
v 0.003921 -0.298346 -0.031381
v -0.104829 -0.277256 -0.026364
v 0.105068 -0.277895 -0.027209
vt 0.069458 0.769531
vt 0.036957 0.499512
vt 0.130371 0.776855
vt 0.113953 0.494629
vt 0.192505 0.762695
vt 0.194214 0.490479
vt 0.099426 0.233643
vt 0.037170 0.247437
vt 0.165405 0.240234
vt 0.595703 0.018646
vt 0.867676 0.018646
vt 0.975098 0.126465
vt 0.595703 0.126465
vt 0.975098 0.724609
vt 0.905762 0.870605
vt 0.790039 0.953613
vt 0.599121 0.987793
vt 0.236450 0.126465
vt 0.344238 0.018646
vt 0.236450 0.724609
vt 0.306152 0.870605
vt 0.421143 0.954590
vt 0.600098 0.985352
vt 0.791504 0.951172
vt 0.906738 0.868164
vt 0.597168 0.124207
vt 0.976562 0.722656
vt 0.976562 0.124207
vt 0.307373 0.868164
vt 0.422607 0.952148
vt 0.237671 0.722656
vt 0.237671 0.124207
vt 0.597168 0.016418
vt 0.868652 0.016418
vt 0.345459 0.016418
vt 0.053955 0.036469
vt 0.114319 0.017517
vt 0.053955 0.144287
vt 0.114319 0.129517
vt 0.177246 0.036469
vt 0.177246 0.144287
vt 0.074829 0.742676
vt 0.114746 0.755859
vt 0.156250 0.742676
vt 0.114746 0.909668
vt 0.074829 0.888184
vt 0.071838 0.971191
vt 0.156250 0.888184
vt 0.114685 0.992676
vt 0.159302 0.971191
vt 0.179810 0.866699
vt 0.179810 0.974121
vt 0.114258 0.993164
vt 0.114258 0.881348
vt 0.051331 0.974121
vt 0.051331 0.866699
vt 0.073120 0.268066
vt 0.114746 0.254883
vt 0.158081 0.268066
vt 0.073120 0.122498
vt 0.114746 0.101196
vt 0.158081 0.122437
vt 0.160645 0.038391
vt 0.114685 0.016998
vt 0.070435 0.038391
vt 0.167603 0.500000
vt 0.152588 0.690918
vt 0.109436 0.699707
vt 0.116638 0.498047
vt 0.166870 0.322266
vt 0.123047 0.310791
vt 0.063538 0.496582
vt 0.065186 0.687988
vt 0.076660 0.319336
vn -0.1402 0.4136 0.8996
vn -0.0035 0.4013 0.9160
vn -0.2592 0.9658 -0.0021
vn -0.0007 1.0000 -0.0008
vn -0.1015 0.2729 -0.9567
vn -0.0038 0.2562 -0.9666
vn 0.2772 0.9608 -0.0014
vn 0.1442 0.4173 0.8973
vn 0.1032 0.2753 -0.9558
vn -0.0035 0.3610 0.9326
vn -0.1407 0.3658 0.9200
vn -0.2639 0.0106 0.9645
vn -0.0033 -0.0188 0.9998
vn -0.3181 -0.0387 0.9473
vn -0.0953 -0.0593 0.9937
vn -0.0689 -0.0762 0.9947
vn -0.0032 -0.0869 0.9962
vn 0.2780 0.0119 0.9605
vn 0.1447 0.3704 0.9175
vn 0.3369 -0.0396 0.9407
vn 0.0954 -0.0616 0.9935
vn 0.0664 -0.0768 0.9948
vn -0.0031 -0.0394 -0.9992
vn -0.0533 -0.0384 -0.9978
vn -0.0670 -0.0125 -0.9977
vn -0.0048 -0.0970 -0.9953
vn -0.2451 -0.0192 -0.9693
vn -0.1620 -0.0271 -0.9864
vn 0.0661 -0.0144 -0.9977
vn 0.0499 -0.0386 -0.9980
vn 0.2633 -0.0193 -0.9645
vn 0.1716 -0.0262 -0.9848
vn -0.0042 0.1548 -0.9879
vn -0.0985 0.2243 -0.9695
vn 0.1001 0.2290 -0.9683
vn -0.1860 0.3988 0.8980
vn -0.3148 0.9492 -0.0016
vn -0.3267 0.0398 0.9443
vn -0.9843 0.1764 0.0013
vn -0.1410 0.2589 -0.9556
vn -0.2503 0.0161 -0.9680
vn -0.3994 -0.0595 0.9148
vn -0.9962 -0.0870 -0.0021
vn -0.3498 -0.0463 -0.9357
vn -0.7752 -0.6318 -0.0015
vn -0.1668 -0.1175 0.9790
vn -0.1281 -0.1478 0.9807
vn -0.1460 -0.0801 -0.9860
vn -0.3979 -0.9174 -0.0018
vn -0.1110 -0.1086 -0.9879
vn 0.2634 0.0181 -0.9645
vn 0.1421 0.2628 -0.9543
vn 0.3309 0.9437 -0.0015
vn 0.9845 0.1755 -0.0045
vn 0.1894 0.4027 0.8955
vn 0.3371 0.0393 0.9407
vn 0.4143 -0.0596 0.9082
vn 0.9963 -0.0860 -0.0054
vn 0.3658 -0.0461 -0.9295
vn 0.1664 -0.1184 0.9789
vn 0.7780 -0.6282 -0.0020
vn 0.1432 -0.0799 -0.9865
vn 0.1075 -0.1078 -0.9883
vn 0.4124 -0.9110 -0.0015
vn 0.1261 -0.1477 0.9810
vn -0.0027 -0.1598 0.9871
vn -0.0934 -0.1601 0.9827
vn -0.3653 -0.9309 -0.0013
vn -0.0014 -1.0000 -0.0011
vn 0.0913 -0.1604 0.9828
vn 0.3794 -0.9252 -0.0007
vn -0.0026 -0.1188 -0.9929
vn -0.0779 -0.1198 -0.9897
vn 0.0750 -0.1191 -0.9900
usemtl Atlas_QuesTablet
s 1
f 3/1/1 2/2/2 1/3/3
f 2/2/2 4/4/4 1/3/3
f 1/3/3 4/4/4 5/5/5
f 4/4/4 6/6/6 5/5/5
f 4/4/4 2/2/2 7/7/7
f 4/4/4 7/7/7 6/6/6
f 2/2/2 8/8/8 7/7/7
f 7/7/7 9/9/9 6/6/6
f 12/10/10 11/11/11 10/12/12
f 13/13/13 12/10/10 10/12/12
f 13/13/13 10/12/12 14/14/14
f 14/14/14 15/15/15 13/13/13
f 15/15/15 16/16/16 13/13/13
f 16/16/16 17/17/17 13/13/13
f 13/13/13 18/18/18 12/10/10
f 18/18/18 19/19/19 12/10/10
f 13/13/13 20/20/20 18/18/18
f 13/13/13 21/21/21 20/20/20
f 13/13/13 17/17/17 21/21/21
f 17/17/17 22/22/22 21/21/21
f 25/23/23 24/24/24 23/25/25
f 26/26/26 25/23/23 23/25/25
f 26/26/26 23/25/25 27/27/27
f 26/26/26 27/27/27 28/28/28
f 26/26/26 29/29/29 25/23/23
f 29/29/29 30/30/30 25/23/23
f 26/26/26 31/31/31 29/29/29
f 32/32/32 31/31/31 26/26/26
f 33/33/33 26/26/26 28/28/28
f 26/26/26 33/33/33 32/32/32
f 34/34/34 33/33/33 28/28/28
f 33/33/33 35/35/35 32/32/32
f 38/36/36 37/37/37 36/38/38
f 37/37/37 39/39/39 36/38/38
f 37/37/37 40/40/40 39/39/39
f 40/40/40 41/41/41 39/39/39
f 36/38/38 39/39/39 42/42/42
f 39/39/39 41/41/41 43/43/43
f 39/39/39 43/43/43 42/42/42
f 41/41/41 44/44/44 43/43/43
f 43/43/43 45/45/45 42/42/42
f 43/43/43 44/44/44 45/45/45
f 45/45/45 46/46/46 42/42/42
f 47/47/47 46/46/46 45/45/45
f 44/44/44 48/48/48 45/45/45
f 49/49/49 47/47/47 45/45/45
f 49/49/49 45/45/45 48/48/48
f 50/50/50 49/49/49 48/48/48
f 53/51/51 52/52/52 51/53/53
f 54/54/54 53/51/51 51/53/53
f 54/54/54 51/53/53 55/55/55
f 56/56/56 54/54/54 55/55/55
f 56/56/56 57/57/57 54/54/54
f 54/54/54 58/58/58 53/51/51
f 57/57/57 58/58/58 54/54/54
f 58/58/58 59/59/59 53/51/51
f 57/57/57 60/60/60 58/58/58
f 58/58/58 61/61/61 59/59/59
f 60/60/60 61/61/61 58/58/58
f 61/61/61 62/62/62 59/59/59
f 62/62/62 61/61/61 63/63/63
f 61/61/61 64/64/64 63/63/63
f 61/61/61 60/60/60 64/64/64
f 60/60/60 65/65/65 64/64/64
f 68/66/66 67/67/67 66/68/68
f 69/69/69 68/66/66 66/68/68
f 70/70/70 68/66/66 69/69/69
f 71/71/71 70/70/70 69/69/69
f 72/72/72 69/69/69 66/68/68
f 71/71/71 69/69/69 72/72/72
f 73/73/73 72/72/72 66/68/68
f 74/74/74 71/71/71 72/72/72
